# xmcd
#
# Track frame offsets:
#	150
#	19728
#	37245
#	60661
#	92322
#	106336
#	126212
#	154350
#	175623
#	195361
#	216189
#	240033
#	251961
#
# Disc length: 3629 seconds
#
# Revision: 1
# Processed by: cddbd v1.5.2PL0 Copyright (c) Steve Scherf et al.
# Submitted via: audiograbber 1.83.01
#
DISCID=a60e2b0d
DTITLE=Ulf Manú Quartett - Violett
DYEAR=2012
DGENRE=
TTITLE0=Ulf Manu Quartett - an dro
TTITLE1=Ulf Manu Quartet - dever the dancer
TTITLE2=Ulf Manu Quartet - und wieder der mond
TTITLE3=Ulf Manu Quartet - violett
TTITLE4=Ulf Manu Quartet - hanter dro
TTITLE5=Ulf Manu Quartet - catch me
TTITLE6=Ulf Manu Quartet - in die weite
TTITLE7=Ulf Manu Quartet - the old fairydance
TTITLE8=Ulf Manu Quartet - ein ungare in l.a.
TTITLE9=Ulf Manu Quartet - seven steps to spring
TTITLE10=Ulf Manu Quartet - for the great
TTITLE11=Ulf Manu Quartet - countrydance
TTITLE12=Ulf Manu Quartet - abendstimmung
EXTD=
EXTT0=
EXTT1=
EXTT2=
EXTT3=
EXTT4=
EXTT5=
EXTT6=
EXTT7=
EXTT8=
EXTT9=
EXTT10=
EXTT11=
EXTT12=
PLAYORDER=
